<?xml version="1.0" encoding="utf-8"?>
<!DOCTYPE svg PUBLIC "-//W3C//DTD SVG 20010904//EN" "http://www.w3.org/TR/2001/REC-SVG-20010904/DTD/svg10.dtd">
<svg version="1.0" width="384pt" height="384pt" viewBox="0 0 384 384" preserveAspectRatio="xMidYMid meet" xmlns="http://www.w3.org/2000/svg">
  <g transform="translate(0,384)scale(.075,.075)">
    <path id="path1" d="M 2946 -2524 c -3 26 -6 74 -6 108 0 82 -25 240 -56 356 -109 412 -403 700 -876 860 -54 19 -98 37 -98 42 0 11 80 279 86 290 8 13 240 -73 379 -142 278 -137 464 -292 612 -511 170 -252 273 -608 273 -945 l 0 -104 -154 0 -153 0 -7 46 z " />
  </g>
</svg>