<?xml version="1.0" encoding="utf-8"?>
<!DOCTYPE svg PUBLIC "-//W3C//DTD SVG 20010904//EN" "http://www.w3.org/TR/2001/REC-SVG-20010904/DTD/svg10.dtd">
<svg version="1.0" width="384pt" height="384pt" viewBox="0 0 384 384" preserveAspectRatio="xMidYMid meet" xmlns="http://www.w3.org/2000/svg">
  <g transform="translate(0,384)scale(.075,.075)">
    <path id="path1" d="M 2947 -2228 c -6 355 -15 471 -47 621 -74 341 -294 467 -811 467 l -129 0 0 155 0 155 27 6 c 42 11 374 -4 475 -22 254 -43 462 -156 583 -316 96 -126 167 -321 195 -533 24 -185 40 -761 24 -844 l -6 -31 -153 0 -152 0 -6 342 z " />
  </g>
</svg>