<?xml version="1.0" encoding="utf-8"?>
<!DOCTYPE svg PUBLIC "-//W3C//DTD SVG 20010904//EN" "http://www.w3.org/TR/2001/REC-SVG-20010904/DTD/svg10.dtd">
<svg version="1.0" width="384pt" height="384pt" viewBox="0 0 384 384" preserveAspectRatio="xMidYMid meet" xmlns="http://www.w3.org/2000/svg">
  <g transform="translate(0,384)scale(.075,.075)">
    <path id="path1" d="M 2345 -4203 c -220 47 -447 202 -575 392 -93 138 -171 347 -186 497 l -6 61 153 16 c 84 9 155 15 156 13 2 -1 10 -40 19 -87 45 -237 174 -429 354 -523 92 -49 177 -69 285 -69 105 1 213 32 298 87 82 52 171 155 216 249 80 165 91 260 91 769 l 0 388 -138 0 c -75 0 -161 3 -190 6 l -52 7 0 153 0 154 195 0 195 0 0 488 c 0 268 3 511 6 539 l 7 53 154 0 153 0 -2 -540 -3 -540 170 0 c 93 0 187 -3 207 -6 l 38 -7 0 -153 0 -154 -210 0 -210 0 0 -368 c 0 -202 -5 -422 -10 -490 -38 -490 -322 -849 -741 -937 -89 -19 -282 -18 -374 2 z " />
  </g>
</svg>