<?xml version="1.0" encoding="utf-8"?>
<!DOCTYPE svg PUBLIC "-//W3C//DTD SVG 20010904//EN" "http://www.w3.org/TR/2001/REC-SVG-20010904/DTD/svg10.dtd">
<svg version="1.0" width="384pt" height="384pt" viewBox="0 0 384 384" preserveAspectRatio="xMidYMid meet" xmlns="http://www.w3.org/2000/svg">
  <g transform="translate(0,384)scale(.075,.075)">
    <path id="path1" d="M 3039 -4072 c -473 551 -685 887 -890 1407 -34 88 -65 163 -69 167 -3 4 -90 -8 -194 -28 -103 -19 -190 -33 -193 -31 -6 6 -62 301 -58 306 2 2 80 18 172 35 127 25 168 36 166 47 -1 8 -24 102 -51 209 -75 293 -192 893 -177 909 4 3 74 18 156 32 l 149 26 5 -21 c 2 -12 21 -113 40 -226 68 -388 184 -880 208 -880 6 0 96 16 200 36 104 19 192 33 194 30 7 -7 62 -300 58 -305 -2 -2 -81 -18 -175 -36 -94 -18 -173 -34 -175 -37 -8 -8 111 -292 185 -443 161 -325 352 -599 703 -1004 l 124 -144 -117 -104 c -65 -56 -120 -103 -122 -103 -3 0 -65 71 -139 158 z " />
  </g>
</svg>