<?xml version="1.0" encoding="utf-8"?>
<!DOCTYPE svg PUBLIC "-//W3C//DTD SVG 20010904//EN" "http://www.w3.org/TR/2001/REC-SVG-20010904/DTD/svg10.dtd">
<svg version="1.0" width="384pt" height="384pt" viewBox="0 0 384 384" preserveAspectRatio="xMidYMid meet" xmlns="http://www.w3.org/2000/svg">
  <g transform="translate(0,384)scale(.075,.075)">
    <path id="path1" d="M 3043 -4167 c -480 325 -759 845 -888 1654 -6 37 -10 42 -28 38 -45 -10 -388 -47 -393 -43 -10 11 -42 303 -33 309 5 3 100 16 210 29 l 201 23 -6 76 c -25 296 -54 1036 -42 1048 4 5 75 10 157 13 144 5 150 4 154 -15 2 -11 8 -171 14 -355 11 -323 24 -566 37 -678 4 -43 9 -52 22 -48 34 9 393 48 398 43 11 -11 42 -302 33 -308 -5 -3 -99 -16 -209 -29 -170 -19 -200 -25 -200 -39 0 -37 44 -255 80 -397 125 -491 349 -842 675 -1060 l 83 -55 -76 -134 c -43 -74 -81 -134 -87 -134 -5 -1 -51 27 -102 62 z " />
  </g>
</svg>