<?xml version="1.0" encoding="utf-8"?>
<!DOCTYPE svg PUBLIC "-//W3C//DTD SVG 20010904//EN" "http://www.w3.org/TR/2001/REC-SVG-20010904/DTD/svg10.dtd">
<svg version="1.0" width="384pt" height="384pt" viewBox="0 0 384 384" preserveAspectRatio="xMidYMid meet" xmlns="http://www.w3.org/2000/svg">
  <g transform="translate(0,384)scale(.075,.075)">
    <path id="path1" d="M 3925 -4195 c -6 2 -57 6 -115 10 l -105 7 0 416 c 0 455 -6 530 -65 822 -166 826 -647 1348 -1506 1635 -254 85 -558 154 -860 197 -88 12 -161 23 -163 24 -6 4 31 298 39 307 9 10 238 -22 452 -63 1098 -210 1791 -665 2144 -1405 154 -323 241 -682 275 -1135 12 -160 7 -769 -6 -802 -5 -13 -18 -18 -44 -17 -20 0 -40 2 -46 4 z " />
  </g>
</svg>