<?xml version="1.0" encoding="utf-8"?>
<!DOCTYPE svg PUBLIC "-//W3C//DTD SVG 20010904//EN" "http://www.w3.org/TR/2001/REC-SVG-20010904/DTD/svg10.dtd">
<svg version="1.0" width="384pt" height="384pt" viewBox="0 0 384 384" preserveAspectRatio="xMidYMid meet" xmlns="http://www.w3.org/2000/svg">
  <g transform="translate(0,384)scale(.075,.075)">
    <path id="path1" d="M 3296 -4148 c -3 18 -7 134 -11 258 -16 652 -98 1058 -289 1441 -174 345 -399 613 -716 850 -189 141 -367 247 -711 423 l -196 101 68 143 69 144 242 -124 c 489 -250 774 -443 1023 -693 406 -405 668 -921 764 -1505 40 -244 71 -651 71 -938 l 0 -132 -155 0 -154 0 -5 32 z " />
  </g>
</svg>