<?xml version="1.0" encoding="utf-8"?>
<!DOCTYPE svg PUBLIC "-//W3C//DTD SVG 20010904//EN" "http://www.w3.org/TR/2001/REC-SVG-20010904/DTD/svg10.dtd">
<svg version="1.0" width="384pt" height="384pt" viewBox="0 0 384 384" preserveAspectRatio="xMidYMid meet" xmlns="http://www.w3.org/2000/svg">
  <g transform="translate(0,384)scale(.075,.075)">
    <path id="path1" d="M 2990 -3524 l 0 566 -33 -6 c -224 -42 -481 -19 -668 59 -214 90 -403 265 -505 466 -21 42 -41 69 -50 69 -9 0 -99 -18 -201 -41 -102 -22 -186 -39 -188 -37 -1 2 -17 70 -35 152 -20 93 -28 151 -22 155 6 3 91 24 190 45 l 179 39 -5 109 c -22 478 243 890 672 1043 153 55 247 69 446 69 179 0 293 -14 450 -54 77 -19 272 -79 279 -86 7 -6 -101 -294 -111 -294 -6 0 -60 16 -121 35 -205 63 -301 79 -497 79 -149 0 -187 -4 -255 -22 -222 -61 -374 -181 -465 -367 -54 -110 -71 -179 -77 -324 -6 -117 -5 -123 13 -117 39 11 396 87 399 84 7 -8 66 -300 61 -305 -3 -3 -87 -23 -188 -45 -101 -22 -185 -42 -187 -44 -2 -2 9 -23 24 -46 128 -193 311 -300 555 -323 94 -9 239 8 362 42 51 13 105 27 121 29 15 3 59 16 97 29 l 70 24 0 -775 0 -774 -155 0 -155 0 0 566 z " />
  </g>
</svg>