<?xml version="1.0" encoding="utf-8"?>
<!DOCTYPE svg PUBLIC "-//W3C//DTD SVG 20010904//EN" "http://www.w3.org/TR/2001/REC-SVG-20010904/DTD/svg10.dtd">
<svg version="1.0" width="384pt" height="384pt" viewBox="0 0 384 384" preserveAspectRatio="xMidYMid meet" xmlns="http://www.w3.org/2000/svg">
  <g transform="translate(0,384)scale(.075,.075)">
    <path id="path1" d="M 1838 -4108 c -2 3 -14 2021 -12 2026 1 1 16 -99 567 -223 311 -124 568 -225 571 -225 3 0 6 249 6 553 0 305 3 649 7 764 l 6 211 156 -5 c 86 -3 156 -6 156 -7 2 -179 -12 -1976 -15 -1980 -3 -3 -258 95 -565 218 l -560 223 -3 -779 -2 -778 -155 0 c -85 0 -156 1 -157 2 z " />
  </g>
</svg>