<?xml version="1.0" encoding="utf-8"?>
<!DOCTYPE svg PUBLIC "-//W3C//DTD SVG 20010904//EN" "http://www.w3.org/TR/2001/REC-SVG-20010904/DTD/svg10.dtd">
<svg version="1.0" width="384pt" height="384pt" viewBox="0 0 384 384" preserveAspectRatio="xMidYMid meet" xmlns="http://www.w3.org/2000/svg">
  <g transform="translate(0,384)scale(.075,.075)">
    <path id="path1" d="M 1837 -3748 c -8 441 -9 1398 -1 1398 3 0 58 -18 122 -40 183 -61 304 -83 448 -78 112 4 126 6 187 36 235 116 357 498 374 1174 l 6 238 160 0 160 0 -6 -238 c -22 -829 -194 -1284 -549 -1456 -131 -63 -224 -80 -403 -73 -77 2 -147 8 -156 11 -13 6 -18 -1 -22 -31 -4 -21 -7 -323 -7 -671 l 0 -632 -153 0 -154 0 -6 362 z " />
  </g>
</svg>