<?xml version="1.0" encoding="utf-8"?>
<!DOCTYPE svg PUBLIC "-//W3C//DTD SVG 20010904//EN" "http://www.w3.org/TR/2001/REC-SVG-20010904/DTD/svg10.dtd">
<svg version="1.0" width="384pt" height="384pt" viewBox="0 0 384 384" preserveAspectRatio="xMidYMid meet" xmlns="http://www.w3.org/2000/svg">
  <g transform="translate(0,384)scale(.075,.075)">
    <path id="path1" d="M 2990 -3524 l 0 566 -33 -6 c -18 -3 -81 -11 -141 -16 -454 -43 -855 177 -1047 575 -157 326 -159 696 -5 1004 119 237 312 408 560 496 153 55 247 69 446 69 179 0 293 -14 450 -54 77 -19 272 -79 279 -86 7 -6 -101 -294 -111 -294 -6 0 -60 16 -121 35 -205 63 -301 79 -497 79 -149 0 -187 -4 -255 -22 -222 -61 -374 -181 -465 -367 -54 -108 -71 -179 -77 -315 -7 -153 18 -274 81 -403 169 -346 523 -479 958 -360 51 13 105 27 121 29 15 3 59 16 97 29 l 70 24 0 -775 0 -774 -155 0 -155 0 0 566 z " />
  </g>
</svg>