<?xml version="1.0" encoding="utf-8"?>
<!DOCTYPE svg PUBLIC "-//W3C//DTD SVG 20010904//EN" "http://www.w3.org/TR/2001/REC-SVG-20010904/DTD/svg10.dtd">
<svg version="1.0" width="384pt" height="384pt" viewBox="0 0 384 384" preserveAspectRatio="xMidYMid meet" xmlns="http://www.w3.org/2000/svg">
  <g transform="translate(0,384)scale(.075,.075)">
    <path id="path1" d="M 2413 -4261 c -391 163 -624 469 -623 818 0 134 38 267 111 390 47 78 161 190 242 237 l 68 39 -79 81 c -204 211 -304 454 -304 741 0 180 38 338 120 500 165 326 456 540 830 611 160 30 442 17 591 -29 l 38 -12 -41 -147 c -23 -81 -43 -149 -46 -152 -4 -3 -31 1 -60 9 -160 42 -378 40 -529 -7 -216 -66 -404 -225 -506 -427 -101 -202 -105 -472 -9 -664 100 -199 295 -360 543 -448 l 59 -21 -26 -81 c -14 -45 -35 -113 -47 -152 l -22 -70 -39 5 c -91 12 -249 5 -301 -13 -122 -42 -223 -153 -258 -281 -73 -268 120 -535 477 -659 14 -5 11 -23 -32 -154 -27 -81 -52 -149 -57 -150 -4 -1 -50 15 -100 36 z " />
  </g>
</svg>