<?xml version="1.0" encoding="utf-8"?>
<!DOCTYPE svg PUBLIC "-//W3C//DTD SVG 20010904//EN" "http://www.w3.org/TR/2001/REC-SVG-20010904/DTD/svg10.dtd">
<svg version="1.0" width="384pt" height="384pt" viewBox="0 0 384 384" preserveAspectRatio="xMidYMid meet" xmlns="http://www.w3.org/2000/svg">
  <g transform="translate(0,384)scale(.075,.075)">
    <path id="path1" d="M 2780 -2753 c -712 37 -1037 129 -1240 351 -81 88 -141 211 -180 366 -26 102 -30 136 -30 255 0 201 24 312 102 462 119 232 350 396 638 455 114 23 333 15 440 -16 257 -74 455 -244 553 -475 51 -120 68 -199 74 -350 8 -214 -29 -420 -117 -648 -16 -43 -30 -80 -30 -83 0 -2 178 -4 395 -4 l 395 0 0 -160 0 -160 -472 2 c -260 1 -498 3 -528 5 z m -71 482 c 27 69 62 175 78 236 25 99 28 126 28 275 0 147 -3 172 -24 230 -63 177 -195 298 -377 345 -75 19 -242 19 -319 0 -174 -44 -322 -158 -388 -296 -48 -102 -61 -166 -59 -294 2 -187 58 -352 148 -435 115 -105 378 -180 739 -208 83 -7 102 -5 112 7 7 8 35 71 62 140 z " />
  </g>
</svg>