<?xml version="1.0" encoding="utf-8"?>
<!DOCTYPE svg PUBLIC "-//W3C//DTD SVG 20010904//EN" "http://www.w3.org/TR/2001/REC-SVG-20010904/DTD/svg10.dtd">
<svg version="1.0" width="384pt" height="384pt" viewBox="0 0 384 384" preserveAspectRatio="xMidYMid meet" xmlns="http://www.w3.org/2000/svg">
  <g transform="translate(0,384)scale(.075,.075)">
    <path id="path1" d="M 1390 -2571 l 0 160 498 -1 c 294 -1 556 4 642 10 642 51 908 184 986 492 13 50 15 92 11 180 -8 185 -65 318 -182 429 -120 112 -293 172 -627 218 -114 15 -128 19 -128 36 0 42 33 282 40 290 8 9 243 -23 384 -53 364 -79 592 -232 724 -488 84 -164 118 -322 109 -514 -10 -242 -94 -429 -261 -585 -143 -134 -361 -227 -653 -277 -248 -43 -343 -49 -951 -53 l -592 -5 0 161 z " />
  </g>
</svg>