<?xml version="1.0" encoding="utf-8"?>
<!DOCTYPE svg PUBLIC "-//W3C//DTD SVG 20010904//EN" "http://www.w3.org/TR/2001/REC-SVG-20010904/DTD/svg10.dtd">
<svg version="1.0" width="384pt" height="384pt" viewBox="0 0 384 384" preserveAspectRatio="xMidYMid meet" xmlns="http://www.w3.org/2000/svg">
  <g transform="translate(0,384)scale(.075,.075)">
    <path id="path1" d="M 2186 -2668 c -3 35 -7 105 -9 156 -4 108 -17 98 138 106 186 9 322 49 397 115 81 71 136 199 164 381 20 132 37 575 29 752 l -7 148 161 0 161 0 0 -332 c 0 -453 -19 -651 -81 -843 -67 -207 -189 -356 -360 -438 -139 -67 -335 -107 -523 -107 l -64 0 -6 62 z " />
  </g>
</svg>