<?xml version="1.0" encoding="utf-8"?>
<!DOCTYPE svg PUBLIC "-//W3C//DTD SVG 20010904//EN" "http://www.w3.org/TR/2001/REC-SVG-20010904/DTD/svg10.dtd">
<svg version="1.0" width="384pt" height="384pt" viewBox="0 0 384 384" preserveAspectRatio="xMidYMid meet" xmlns="http://www.w3.org/2000/svg">
  <g transform="translate(0,384)scale(.075,.075)">
    <path id="path1" d="M 2345 -4203 c -220 47 -447 202 -575 392 -93 138 -171 347 -186 497 l -6 61 153 16 c 84 9 155 15 156 13 2 -1 10 -40 19 -87 45 -237 174 -429 354 -523 143 -75 309 -91 453 -42 102 34 167 77 244 160 103 110 162 252 182 441 5 49 12 549 16 1110 3 561 8 1050 11 1088 l 6 67 155 0 156 0 -7 -1062 c -4 -585 -11 -1121 -16 -1191 -36 -492 -319 -854 -741 -942 -89 -19 -282 -18 -374 2 z " />
  </g>
</svg>