<?xml version="1.0" encoding="utf-8"?>
<!DOCTYPE svg PUBLIC "-//W3C//DTD SVG 20010904//EN" "http://www.w3.org/TR/2001/REC-SVG-20010904/DTD/svg10.dtd">
<svg version="1.0" width="384pt" height="384pt" viewBox="0 0 384 384" preserveAspectRatio="xMidYMid meet" xmlns="http://www.w3.org/2000/svg">
  <g transform="translate(0,384)scale(.075,.075)">
    <path id="path1" d="M 2340 -4155 c -388 236 -625 503 -742 835 -19 56 -23 90 -26 240 -4 206 7 269 69 394 86 174 202 292 364 372 144 70 228 87 409 82 131 -4 162 -8 236 -33 89 -29 215 -88 316 -149 32 -20 62 -36 66 -36 5 0 8 157 8 348 0 192 3 511 7 710 l 6 362 154 0 153 0 0 -930 0 -930 -163 0 -163 0 -90 81 c -108 98 -242 189 -321 219 -292 111 -570 17 -697 -236 -37 -75 -49 -144 -44 -258 4 -82 11 -116 37 -183 86 -220 309 -451 605 -628 53 -32 96 -61 96 -66 0 -22 -131 -269 -143 -269 -7 0 -68 34 -137 75 z " />
  </g>
</svg>