<?xml version="1.0" encoding="utf-8"?>
<!DOCTYPE svg PUBLIC "-//W3C//DTD SVG 20010904//EN" "http://www.w3.org/TR/2001/REC-SVG-20010904/DTD/svg10.dtd">
<svg version="1.0" width="384pt" height="384pt" viewBox="0 0 384 384" preserveAspectRatio="xMidYMid meet" xmlns="http://www.w3.org/2000/svg">
  <g transform="translate(0,384)scale(.075,.075)">
    <path id="path1" d="M 2660 -4212 c -170 120 -220 158 -310 231 -495 405 -819 904 -921 1421 -30 151 -33 437 -6 573 116 575 541 973 1169 1093 114 21 341 14 458 -15 163 -41 351 -153 441 -263 88 -107 147 -229 176 -362 20 -96 13 -293 -16 -396 -23 -85 -71 -207 -101 -255 l -20 -33 -133 76 c -72 41 -134 77 -136 79 -2 1 12 38 32 80 20 43 43 107 52 143 18 81 19 209 1 276 -46 173 -200 308 -397 350 -117 25 -295 14 -434 -26 -405 -116 -672 -380 -767 -757 -33 -129 -33 -385 0 -531 113 -503 459 -972 998 -1353 63 -45 114 -83 114 -86 0 -9 -165 -263 -170 -262 -3 0 -16 8 -30 17 z " />
  </g>
</svg>