<?xml version="1.0" encoding="utf-8"?>
<!DOCTYPE svg PUBLIC "-//W3C//DTD SVG 20010904//EN" "http://www.w3.org/TR/2001/REC-SVG-20010904/DTD/svg10.dtd">
<svg version="1.0" width="384pt" height="384pt" viewBox="0 0 384 384" preserveAspectRatio="xMidYMid meet" xmlns="http://www.w3.org/2000/svg">
  <g transform="translate(0,384)scale(.075,.075)">
    <path id="path1" d="M 3043 -4167 c -564 381 -848 1019 -938 2102 -29 356 -55 1034 -39 1037 5 0 76 4 157 7 142 6 148 5 152 -14 2 -11 6 -121 10 -245 19 -728 67 -1181 164 -1563 126 -495 349 -845 676 -1063 l 83 -55 -76 -134 c -43 -74 -81 -134 -87 -134 -5 -1 -51 27 -102 62 z " />
  </g>
</svg>