<?xml version="1.0" encoding="utf-8"?>
<!DOCTYPE svg PUBLIC "-//W3C//DTD SVG 20010904//EN" "http://www.w3.org/TR/2001/REC-SVG-20010904/DTD/svg10.dtd">
<svg version="1.0" width="384pt" height="384pt" viewBox="0 0 384 384" preserveAspectRatio="xMidYMid meet" xmlns="http://www.w3.org/2000/svg">
  <g transform="translate(0,384)scale(.075,.075)">
    <path id="path1" d="M 3039 -4072 c -314 365 -483 596 -638 869 -168 296 -347 746 -456 1148 -67 245 -191 852 -198 969 l -2 39 153 27 152 27 5 -21 c 2 -12 21 -113 40 -226 119 -681 265 -1164 491 -1625 163 -333 352 -604 707 -1014 l 124 -144 -117 -104 c -65 -56 -120 -103 -122 -103 -3 0 -65 71 -139 158 z " />
  </g>
</svg>