<?xml version="1.0" encoding="utf-8"?>
<!DOCTYPE svg PUBLIC "-//W3C//DTD SVG 20010904//EN" "http://www.w3.org/TR/2001/REC-SVG-20010904/DTD/svg10.dtd">
<svg version="1.0" width="384pt" height="384pt" viewBox="0 0 384 384" preserveAspectRatio="xMidYMid meet" xmlns="http://www.w3.org/2000/svg">
  <g transform="translate(0,384)scale(.075,.075)">
    <path id="path1" d="M 3925 -4195 c -6 2 -57 6 -115 10 l -105 7 0 416 c 0 343 -3 440 -18 547 -26 188 -71 403 -113 535 -38 122 -105 290 -115 290 -3 0 -110 -36 -237 -79 l -231 -80 -50 151 c -28 84 -50 152 -48 153 1 1 93 33 204 70 l 202 69 -30 40 c -366 499 -1044 824 -1995 958 -88 12 -161 23 -163 24 -6 4 31 298 39 307 17 19 498 -65 772 -134 781 -198 1323 -543 1679 -1068 l 14 -21 217 74 217 75 50 -151 c 28 -84 50 -152 48 -153 -1 -1 -86 -30 -189 -65 -104 -34 -188 -64 -188 -66 0 -2 14 -38 31 -81 106 -264 173 -546 211 -888 14 -131 18 -868 5 -917 -6 -24 -12 -28 -45 -27 -20 0 -41 2 -47 4 z " />
  </g>
</svg>