<?xml version="1.0" encoding="utf-8"?>
<!DOCTYPE svg PUBLIC "-//W3C//DTD SVG 20010904//EN" "http://www.w3.org/TR/2001/REC-SVG-20010904/DTD/svg10.dtd">
<svg version="1.0" width="384pt" height="384pt" viewBox="0 0 384 384" preserveAspectRatio="xMidYMid meet" xmlns="http://www.w3.org/2000/svg">
  <g transform="translate(0,384)scale(.075,.075)">
    <path id="path1" d="M 3296 -4148 c -3 18 -7 134 -11 258 -9 359 -37 637 -91 880 -27 123 -96 339 -137 433 -23 51 -29 57 -49 52 -13 -4 -115 -35 -228 -69 -113 -35 -208 -61 -212 -57 -10 9 -92 291 -86 296 2 3 88 30 189 61 101 31 187 58 192 61 10 6 -2 26 -75 125 -275 373 -572 600 -1219 932 l -196 101 68 143 69 144 242 -124 c 256 -131 495 -270 638 -371 304 -214 549 -465 731 -746 35 -55 71 -100 79 -100 8 0 107 28 220 63 113 35 208 61 212 57 10 -9 92 -291 86 -296 -2 -3 -88 -30 -189 -61 -101 -31 -185 -57 -187 -58 -1 -2 12 -36 28 -77 72 -173 140 -424 174 -639 36 -225 66 -640 66 -908 l 0 -132 -155 0 -154 0 -5 32 z " />
  </g>
</svg>