<?xml version="1.0" encoding="utf-8"?>
<!DOCTYPE svg PUBLIC "-//W3C//DTD SVG 20010904//EN" "http://www.w3.org/TR/2001/REC-SVG-20010904/DTD/svg10.dtd">
<svg version="1.0" width="384pt" height="384pt" viewBox="0 0 384 384" preserveAspectRatio="xMidYMid meet" xmlns="http://www.w3.org/2000/svg">
  <g transform="translate(0,384)scale(.075,.075)">
    <path id="path1" d="M 2227 -4244 c -177 38 -341 121 -458 232 -66 62 -129 140 -129 159 1 8 251 153 265 153 3 0 29 -25 57 -55 98 -108 249 -174 414 -182 174 -9 267 35 325 153 29 59 33 77 37 172 9 234 -66 479 -281 908 -118 236 -164 347 -207 500 -46 165 -63 305 -57 469 7 191 45 332 128 473 44 74 198 228 272 271 180 106 419 150 655 121 94 -11 263 -48 276 -60 6 -6 -67 -284 -79 -298 -2 -2 -50 7 -107 20 -152 34 -352 32 -460 -4 -244 -81 -368 -276 -368 -576 0 -222 62 -435 213 -731 229 -450 322 -731 334 -1011 9 -210 -27 -352 -122 -486 -81 -113 -215 -198 -360 -229 -88 -18 -259 -18 -348 1 z " />
  </g>
</svg>