<?xml version="1.0" encoding="utf-8"?>
<!DOCTYPE svg PUBLIC "-//W3C//DTD SVG 20010904//EN" "http://www.w3.org/TR/2001/REC-SVG-20010904/DTD/svg10.dtd">
<svg version="1.0" width="384pt" height="384pt" viewBox="0 0 384 384" preserveAspectRatio="xMidYMid meet" xmlns="http://www.w3.org/2000/svg">
  <g transform="translate(0,384)scale(.075,.075)">
    <path id="path1" d="M 2247 -4200 c -108 12 -290 52 -417 92 -52 17 -97 32 -99 34 -7 7 102 294 112 294 5 0 51 -13 101 -29 202 -65 416 -92 579 -73 142 16 206 34 327 94 92 45 116 63 195 142 177 179 265 410 265 697 0 766 -620 1493 -1538 1804 -45 15 -82 32 -82 37 0 5 21 73 47 152 l 46 144 96 -33 c 308 -104 677 -304 910 -492 427 -347 704 -783 808 -1273 24 -112 27 -146 27 -330 0 -223 -13 -311 -70 -477 -140 -408 -462 -687 -883 -767 -105 -20 -309 -27 -424 -16 z " />
  </g>
</svg>