<?xml version="1.0" encoding="utf-8"?>
<!DOCTYPE svg PUBLIC "-//W3C//DTD SVG 20010904//EN" "http://www.w3.org/TR/2001/REC-SVG-20010904/DTD/svg10.dtd">
<svg version="1.0" width="384pt" height="384pt" viewBox="0 0 384 384" preserveAspectRatio="xMidYMid meet" xmlns="http://www.w3.org/2000/svg">
  <g transform="translate(0,384)scale(.075,.075)">
    <path id="path1" d="M 2660 -4212 c -170 120 -220 158 -310 231 -417 341 -712 746 -855 1175 -45 135 -85 317 -85 387 l 0 39 -142 0 c -79 0 -167 3 -196 6 l -52 7 0 153 0 154 195 0 c 194 0 195 0 199 22 3 13 10 50 17 83 32 166 127 378 230 514 215 284 534 471 931 547 114 21 341 14 458 -15 163 -41 351 -153 441 -263 88 -107 147 -229 176 -362 20 -96 13 -293 -16 -396 -23 -85 -71 -207 -101 -255 l -20 -33 -133 76 c -72 41 -134 77 -136 79 -2 1 12 38 32 80 46 99 67 187 67 288 0 141 -42 245 -138 340 -113 112 -263 160 -472 152 -461 -18 -874 -330 -989 -747 -34 -120 -47 -110 151 -110 95 0 190 -3 210 -6 l 38 -7 0 -153 0 -154 -215 0 -215 0 0 -30 c 0 -17 9 -74 21 -127 106 -488 459 -966 995 -1344 63 -45 114 -83 114 -86 0 -9 -165 -263 -170 -262 -3 0 -16 8 -30 17 z " />
  </g>
</svg>