<?xml version="1.0" encoding="utf-8"?>
<!DOCTYPE svg PUBLIC "-//W3C//DTD SVG 20010904//EN" "http://www.w3.org/TR/2001/REC-SVG-20010904/DTD/svg10.dtd">
<svg version="1.0" width="384pt" height="384pt" viewBox="0 0 384 384" preserveAspectRatio="xMidYMid meet" xmlns="http://www.w3.org/2000/svg">
  <g transform="translate(0,384)scale(.075,.075)">
    <path id="path1" d="M 1620 -2738 c -251 11 -233 4 -226 86 3 37 9 107 12 156 l 7 89 101 -7 c 55 -3 274 -9 486 -12 l 385 -6 -81 83 c -303 316 -399 636 -289 969 73 221 283 442 512 539 147 63 213 76 383 76 182 0 16 -17 396 -90 201 -105 347 -273 448 -516 57 -139 76 -221 76 -334 0 -195 -27 -338 -89 -470 -163 -345 -543 -519 -1236 -565 -175 -11 -620 -11 -885 2 z m 1390 395 c 52 13 140 46 196 73 216 105 303 257 304 536 0 110 -22 189 -86 314 -117 228 -285 340 -509 340 -111 0 -184 -18 -295 -72 -155 -75 -288 -235 -319 -386 -55 -264 110 -536 477 -786 67 -45 88 -55 110 -50 15 3 70 17 122 31 z " />
  </g>
</svg>