<?xml version="1.0" encoding="utf-8"?>
<!DOCTYPE svg PUBLIC "-//W3C//DTD SVG 20010904//EN" "http://www.w3.org/TR/2001/REC-SVG-20010904/DTD/svg10.dtd">
<svg version="1.0" width="384pt" height="384pt" viewBox="0 0 384 384" preserveAspectRatio="xMidYMid meet" xmlns="http://www.w3.org/2000/svg">
  <g transform="translate(0,384)scale(.075,.075)">
    <path id="path1" d="M 2470 -2718 c -319 27 -575 267 -666 625 -80 318 -31 654 131 898 111 167 262 272 454 316 70 16 257 13 336 -6 379 -87 621 -473 602 -959 -11 -283 -109 -522 -280 -682 -159 -149 -346 -211 -577 -192 z m 209 333 c 109 36 197 118 256 239 58 118 70 180 70 356 0 135 -3 165 -23 230 -61 192 -175 325 -307 358 -118 30 -236 19 -328 -30 -247 -132 -341 -590 -187 -914 41 -85 132 -182 204 -217 90 -44 220 -53 315 -22 z " />
  </g>
</svg>