<?xml version="1.0" encoding="utf-8"?>
<!DOCTYPE svg PUBLIC "-//W3C//DTD SVG 20010904//EN" "http://www.w3.org/TR/2001/REC-SVG-20010904/DTD/svg10.dtd">
<svg version="1.0" width="384pt" height="384pt" viewBox="0 0 384 384" preserveAspectRatio="xMidYMid meet" xmlns="http://www.w3.org/2000/svg">
  <g transform="translate(0,384)scale(.075,.075)">
    <path id="path1" d="M 2247 -4200 c -108 12 -290 52 -417 92 -52 17 -97 32 -99 34 -7 7 102 294 112 294 5 0 51 -13 101 -29 202 -65 416 -92 579 -73 142 16 206 34 327 94 92 45 116 63 195 142 101 102 161 197 206 329 77 223 79 496 5 761 -14 48 -27 91 -31 94 -4 4 -361 -91 -431 -115 -10 -3 -100 294 -92 303 3 2 85 26 184 54 98 28 185 53 192 55 29 10 -154 259 -297 404 -261 264 -623 485 -1009 616 -45 15 -82 32 -82 37 0 5 21 73 47 152 l 46 144 96 -33 c 308 -104 677 -304 910 -492 240 -196 461 -452 586 -681 15 -29 31 -52 34 -52 3 0 100 27 215 60 116 33 211 59 212 57 6 -7 85 -299 82 -303 -2 -2 -85 -26 -184 -54 -98 -28 -184 -52 -191 -55 -9 -3 -7 -19 8 -62 11 -32 32 -114 46 -183 24 -112 27 -146 27 -330 0 -223 -13 -311 -70 -477 -140 -408 -462 -687 -883 -767 -105 -20 -309 -27 -424 -16 z " />
  </g>
</svg>