<?xml version="1.0" encoding="utf-8"?>
<!DOCTYPE svg PUBLIC "-//W3C//DTD SVG 20010904//EN" "http://www.w3.org/TR/2001/REC-SVG-20010904/DTD/svg10.dtd">
<svg version="1.0" width="384pt" height="384pt" viewBox="0 0 384 384" preserveAspectRatio="xMidYMid meet" xmlns="http://www.w3.org/2000/svg">
  <g transform="translate(0,384)scale(.075,.075)">
    <path id="path1" d="M 3345 -2779 c -781 32 -1296 201 -1626 531 -213 213 -332 480 -370 833 -16 148 0 547 22 570 5 5 301 -34 307 -40 2 -2 -2 -57 -9 -122 -17 -171 -7 -409 25 -544 135 -585 632 -858 1651 -909 110 -5 260 -10 333 -10 l 132 0 0 -154 0 -153 -38 -7 c -44 -7 -181 -6 -427 5 z " />
  </g>
</svg>