<?xml version="1.0" encoding="utf-8"?>
<!DOCTYPE svg PUBLIC "-//W3C//DTD SVG 20010904//EN" "http://www.w3.org/TR/2001/REC-SVG-20010904/DTD/svg10.dtd">
<svg version="1.0" width="384pt" height="384pt" viewBox="0 0 384 384" preserveAspectRatio="xMidYMid meet" xmlns="http://www.w3.org/2000/svg">
  <g transform="translate(0,384)scale(.075,.075)">
    <path id="path1" d="M 1426 -4217 c -42 298 -55 1206 -23 1527 68 667 229 1091 527 1390 293 295 711 445 1402 505 95 8 198 17 229 20 l 56 6 10 -158 c 6 -87 10 -159 9 -160 -1 -1 -83 -9 -184 -17 -587 -51 -895 -130 -1140 -293 -365 -243 -552 -702 -602 -1478 -19 -304 -9 -794 24 -1200 7 -83 12 -151 11 -152 -1 -2 -48 -7 -106 -13 -57 -5 -127 -12 -155 -15 l -52 -5 -6 43 z " />
  </g>
</svg>