<?xml version="1.0" encoding="utf-8"?>
<!DOCTYPE svg PUBLIC "-//W3C//DTD SVG 20010904//EN" "http://www.w3.org/TR/2001/REC-SVG-20010904/DTD/svg10.dtd">
<svg version="1.0" width="384pt" height="384pt" viewBox="0 0 384 384" preserveAspectRatio="xMidYMid meet" xmlns="http://www.w3.org/2000/svg">
  <g transform="translate(0,384)scale(.075,.075)">
    <path id="path1" d="M 1426 -4217 c -41 297 -55 1206 -23 1524 10 95 27 227 38 294 10 67 18 123 17 124 -2 1 -111 39 -243 85 -132 46 -241 84 -243 85 -2 2 20 70 49 153 l 53 150 138 -49 c 287 -101 319 -112 327 -103 4 5 27 59 50 119 148 380 394 650 742 814 247 116 568 188 1001 226 95 8 198 17 229 20 l 56 6 10 -158 c 6 -87 10 -159 9 -160 -1 -1 -83 -9 -184 -17 -587 -51 -895 -130 -1140 -293 -198 -131 -351 -340 -451 -616 l -21 -58 28 -9 c 15 -6 119 -42 232 -82 113 -39 206 -72 208 -73 2 -2 -20 -70 -49 -153 l -53 -150 -55 20 c -127 47 -366 128 -376 128 -12 0 -36 -149 -56 -345 -28 -282 -21 -909 15 -1340 7 -83 12 -151 11 -152 -1 -2 -48 -7 -106 -13 -57 -5 -127 -12 -155 -15 l -52 -5 -6 43 z " />
  </g>
</svg>