<?xml version="1.0" encoding="utf-8"?>
<!DOCTYPE svg PUBLIC "-//W3C//DTD SVG 20010904//EN" "http://www.w3.org/TR/2001/REC-SVG-20010904/DTD/svg10.dtd">
<svg version="1.0" width="384pt" height="384pt" viewBox="0 0 384 384" preserveAspectRatio="xMidYMid meet" xmlns="http://www.w3.org/2000/svg">
  <g transform="translate(0,384)scale(.075,.075)">
    <path id="path1" d="M 2631 -4195 c -91 58 -189 86 -322 92 -147 7 -238 -11 -367 -73 -52 -25 -95 -44 -97 -42 -18 23 -165 250 -165 255 0 32 271 145 402 169 21 3 38 8 38 11 0 3 -43 53 -96 111 -339 375 -553 799 -607 1204 l -13 93 -187 3 -187 2 0 150 0 150 87 1 c 121 1 280 13 288 20 3 4 19 58 36 120 85 329 246 573 499 758 101 74 308 179 437 220 170 55 235 64 442 58 204 -6 252 -15 377 -72 187 -85 309 -200 393 -368 75 -149 84 -197 79 -397 -5 -145 -8 -175 -32 -243 -26 -78 -95 -237 -103 -237 -25 0 -263 142 -263 158 0 7 7 29 16 50 41 96 64 180 70 260 12 162 -28 275 -132 380 -126 126 -326 182 -546 153 -434 -58 -787 -335 -906 -711 -42 -135 -40 -140 87 -140 48 0 136 -3 194 -7 l 107 -6 0 -147 c 0 -145 0 -148 -22 -154 -13 -3 -110 -6 -216 -6 l -192 0 0 -24 c 0 -51 30 -180 71 -303 72 -215 187 -418 356 -628 119 -148 346 -364 513 -488 80 -60 158 -118 173 -130 l 28 -22 -91 -127 c -50 -71 -92 -128 -93 -128 -1 0 -26 16 -56 35 z " />
  </g>
</svg>