<?xml version="1.0" encoding="utf-8"?>
<!DOCTYPE svg PUBLIC "-//W3C//DTD SVG 20010904//EN" "http://www.w3.org/TR/2001/REC-SVG-20010904/DTD/svg10.dtd">
<svg version="1.0" width="384pt" height="384pt" viewBox="0 0 384 384" preserveAspectRatio="xMidYMid meet" xmlns="http://www.w3.org/2000/svg">
  <g transform="translate(0,384)scale(.075,.075)">
    <path id="path1" d="M 1415 -4208 c -27 199 -150 403 -308 510 -74 50 -184 101 -260 121 -33 9 -61 17 -63 20 -5 4 54 298 61 305 8 8 135 -29 225 -65 90 -37 185 -91 261 -148 l 46 -35 6 333 c 6 340 22 547 57 766 11 68 19 125 18 126 -2 1 -111 39 -243 85 -132 46 -241 84 -243 85 -2 2 20 70 49 153 l 53 150 135 -48 c 75 -26 178 -63 229 -80 53 -19 96 -29 101 -24 4 5 27 59 50 119 148 381 394 650 744 815 245 115 567 187 997 225 91 7 192 17 226 20 l 61 6 10 -158 c 6 -87 10 -159 9 -160 -1 -1 -83 -9 -184 -17 -588 -51 -895 -130 -1140 -293 -198 -131 -351 -340 -451 -616 l -21 -58 23 -8 c 12 -4 117 -41 232 -81 115 -40 211 -74 213 -75 2 -2 -20 -70 -49 -153 l -53 -150 -55 20 c -127 47 -366 128 -376 128 -12 0 -36 -149 -56 -345 -28 -282 -21 -909 15 -1340 7 -83 11 -152 9 -155 -5 -5 -229 -29 -285 -29 l -36 -1 -7 52 z " />
  </g>
</svg>