<?xml version="1.0" encoding="utf-8"?>
<!DOCTYPE svg PUBLIC "-//W3C//DTD SVG 20010904//EN" "http://www.w3.org/TR/2001/REC-SVG-20010904/DTD/svg10.dtd">
<svg version="1.0" width="384pt" height="384pt" viewBox="0 0 384 384" preserveAspectRatio="xMidYMid meet" xmlns="http://www.w3.org/2000/svg">
  <g transform="translate(0,384)scale(.075,.075)">
    <path id="path1" d="M 1415 -4208 c -27 199 -150 403 -308 510 -74 50 -184 101 -260 121 -33 9 -61 17 -63 20 -5 4 54 298 61 305 8 8 135 -29 225 -65 90 -37 185 -91 261 -148 l 46 -35 6 328 c 3 180 13 401 22 492 64 651 228 1083 525 1380 293 295 711 445 1400 505 91 7 192 17 226 20 l 61 6 10 -158 c 6 -87 10 -159 9 -160 -1 -1 -83 -9 -184 -17 -588 -51 -895 -130 -1140 -293 -365 -243 -552 -702 -602 -1478 -19 -304 -9 -794 24 -1200 7 -83 11 -152 9 -155 -5 -5 -229 -29 -285 -29 l -36 -1 -7 52 z " />
  </g>
</svg>