<?xml version="1.0" encoding="utf-8"?>
<!DOCTYPE svg PUBLIC "-//W3C//DTD SVG 20010904//EN" "http://www.w3.org/TR/2001/REC-SVG-20010904/DTD/svg10.dtd">
<svg version="1.0" width="384pt" height="384pt" viewBox="0 0 384 384" preserveAspectRatio="xMidYMid meet" xmlns="http://www.w3.org/2000/svg">
  <g transform="translate(0,384)scale(.075,.075)">
    <path id="path1" d="M 2631 -4195 c -91 58 -189 86 -322 92 -147 7 -238 -11 -367 -73 -52 -25 -95 -44 -97 -42 -19 23 -165 250 -165 16 0 26 232 127 360 157 41 10 77 19 79 21 2 2 -40 51 -93 110 -247 273 -432 578 -530 874 -62 189 -75 264 -82 473 -10 296 17 447 117 656 178 373 483 618 934 747 96 28 108 29 315 29 239 0 279 -7 416 -70 187 -85 309 -200 393 -368 75 -149 84 -197 79 -397 -5 -145 -8 -175 -32 -243 -26 -78 -95 -237 -103 -237 -25 0 -263 142 -263 157 0 8 11 41 26 76 56 138 77 292 53 396 -36 159 -171 293 -359 357 -44 15 -82 19 -190 18 -74 0 -162 -7 -195 -14 -168 -35 -345 -111 -464 -199 -78 -58 -204 -186 -250 -254 -52 -76 -110 -209 -138 -315 -22 -84 -26 -118 -27 -257 -1 -177 13 -269 66 -435 34 -106 132 -319 198 -425 151 -246 430 -536 720 -749 58 -42 118 -87 133 -99 l 28 -22 -91 -127 c -50 -71 -92 -128 -93 -128 -1 0 -26 16 -56 35 z " />
  </g>
</svg>